<?xml version="1.0" encoding="UTF-8" standalone="no"?><!-- Generator: Gravit.io --><svg xmlns="http://www.w3.org/2000/svg" xmlns:xlink="http://www.w3.org/1999/xlink" style="isolation:isolate" viewBox="0 0 558.5 167.5" width="558.5pt" height="167.5pt"><defs><clipPath id="_clipPath_3MbVcXzLdwUPYLS7R4YSzH6Jsq2Dq724"><rect width="558.5" height="167.5"/></clipPath></defs><g clip-path="url(#_clipPath_3MbVcXzLdwUPYLS7R4YSzH6Jsq2Dq724)"><rect width="558.5" height="167.5" style="fill:rgb(33,43,56)" fill-opacity="0"/><path d=" M 114.669 111.209 Q 125.984 125.935 109.726 148 Q 178.335 127.152 157.108 57.027 Q 172.483 46.247 173.028 34.662 L 26.333 129.805 L 26.333 129.805 L 26.333 129.805 L 93.968 106.719 Q 105.774 103.538 111.592 107.814 Q 113.238 109.377 114.533 111.033 Q 114.594 111.132 114.653 111.232 L 114.669 111.209 Z  M 41.356 58.777 C 50.882 35.732 73.59 19.5 100.06 19.5 C 120.224 19.5 138.206 28.921 149.84 43.597 L 148.01 44.897 Q 34.329 112.129 41.356 58.777 L 41.356 58.777 L 41.356 58.777 Z  M 169.237 24.049 Q 179.046 30.445 184.021 47.171 Q 188.617 38.832 186.674 34.662 Q 197.525 26.133 197.667 20.637 Q 186.579 20.827 180.609 25.944 Q 173.928 22.153 169.237 24.049 L 169.237 24.049 Z " fill-rule="evenodd" fill="rgb(255,255,255)"/><path d=" M 211.91 59.955 L 211.91 59.955 L 211.91 59.955 Q 219.023 59.955 224.044 62.428 L 224.044 62.428 L 224.044 74.068 L 223.968 74.144 L 223.968 74.144 Q 221.838 70.872 214.991 69.807 L 214.991 69.807 L 214.991 69.807 Q 212.975 69.465 209.894 69.465 L 209.894 69.465 L 209.894 69.465 Q 206.812 69.465 203.845 70.625 L 203.845 70.625 L 203.845 70.625 Q 200.878 71.785 198.977 73.916 L 198.977 73.916 L 198.977 73.916 Q 195.287 78.062 195.287 85.746 L 195.287 85.746 L 195.287 85.746 Q 195.287 94.685 199.966 99.059 L 199.966 99.059 L 199.966 99.059 Q 203.845 102.711 210.236 102.711 L 210.236 102.711 L 210.236 102.711 Q 217.463 102.711 221.952 99.63 L 221.952 99.63 L 221.952 99.63 Q 223.587 98.526 224.729 96.891 L 224.729 96.891 L 224.843 96.967 L 224.843 107.618 L 224.843 107.618 Q 219.023 112.449 209.171 112.449 L 209.171 112.449 L 209.171 112.449 Q 197.569 112.449 190.988 105.069 L 190.988 105.069 L 190.988 105.069 Q 184.674 98.032 184.674 86.43 L 184.674 86.43 L 184.674 86.43 Q 184.674 74.144 191.597 67.069 L 191.597 67.069 L 191.597 67.069 Q 198.596 59.955 211.91 59.955 Z  M 240.819 66.574 L 232.26 60.412 L 232.26 60.412 Q 235.303 55.657 238.613 52.043 L 238.613 52.043 L 246.791 58.472 L 246.791 58.472 Q 245.155 60.488 243.748 62.428 L 243.748 62.428 L 243.748 62.428 Q 243.748 62.428 240.819 66.574 L 240.819 66.574 Z  M 242.264 71.747 L 242.264 107.237 L 242.264 107.237 Q 242.264 110.509 242.416 111.498 L 242.416 111.498 L 232.755 111.498 L 232.755 71.747 L 242.264 71.747 Z  M 262.995 84.909 L 262.995 106.629 L 262.995 106.629 Q 262.995 109.976 263.3 111.498 L 263.3 111.498 L 253.752 111.498 L 253.752 71.747 L 262.995 71.747 L 262.995 75.133 L 262.995 75.133 Q 268.016 70.987 273.722 70.987 L 273.722 70.987 L 273.722 70.987 Q 279.96 70.987 283.688 75.228 L 283.688 75.228 L 283.688 75.228 Q 287.416 79.469 287.416 86.392 L 287.416 86.392 L 287.416 101.531 L 287.416 101.531 Q 287.416 107.96 287.606 109.253 L 287.606 109.253 L 287.606 109.253 Q 287.796 110.547 288.12 110.927 L 288.12 110.927 L 288.12 110.927 Q 288.443 111.307 288.671 111.612 L 288.671 111.612 L 288.595 111.764 L 288.595 111.764 Q 285.514 111.498 284.107 111.498 L 284.107 111.498 L 281.444 111.498 L 281.444 111.498 Q 280.227 111.498 278.173 111.612 L 278.173 111.612 L 278.173 90.881 L 278.173 90.881 Q 278.173 79.735 271.402 79.735 L 271.402 79.735 L 271.402 79.735 Q 266.381 79.735 262.995 84.909 L 262.995 84.909 Z  M 296.621 91.946 L 296.621 91.946 L 296.621 91.946 Q 296.621 87.495 298.143 83.691 L 298.143 83.691 L 298.143 83.691 Q 299.664 79.888 302.441 77.035 L 302.441 77.035 L 302.441 77.035 Q 308.375 70.987 317.961 70.987 L 317.961 70.987 L 317.961 70.987 Q 326.063 70.987 330.97 76.35 L 330.97 76.35 L 330.97 76.35 Q 335.801 81.523 335.801 89.359 L 335.801 89.359 L 335.801 89.359 Q 335.801 92.364 335.344 93.467 L 335.344 93.467 L 335.344 93.467 Q 331.541 94.532 319.863 94.532 L 319.863 94.532 L 306.473 94.532 L 306.473 94.532 Q 307.462 98.603 311.076 100.866 L 311.076 100.866 L 311.076 100.866 Q 314.69 103.129 320.471 103.129 L 320.471 103.129 L 320.471 103.129 Q 326.519 103.129 330.856 100.961 L 330.856 100.961 L 330.856 100.961 Q 331.997 100.39 332.568 99.896 L 332.568 99.896 L 332.568 99.896 Q 332.492 101.493 332.377 103.167 L 332.377 103.167 L 331.959 109.101 L 331.959 109.101 Q 329.068 111.079 322.602 111.84 L 322.602 111.84 L 322.602 111.84 Q 320.7 112.068 318.95 112.068 L 318.95 112.068 L 318.95 112.068 Q 309.288 112.068 302.974 106.438 L 302.974 106.438 L 302.974 106.438 Q 296.621 100.771 296.621 91.946 Z  M 325.683 87.153 L 325.683 87.153 L 325.683 87.153 Q 324.123 78.975 316.782 78.975 L 316.782 78.975 L 316.782 78.975 Q 311 78.975 307.995 83.958 L 307.995 83.958 L 307.995 83.958 Q 307.082 85.479 306.587 87.305 L 306.587 87.305 L 306.587 87.305 Q 307.5 87.343 308.832 87.381 L 308.832 87.381 L 311.646 87.381 L 311.646 87.381 Q 313.054 87.419 314.347 87.419 L 314.347 87.419 L 316.515 87.419 L 316.515 87.419 Q 318.455 87.419 320.319 87.381 L 320.319 87.381 L 323.438 87.267 L 323.438 87.267 Q 324.694 87.229 325.683 87.153 Z  M 375.551 63.721 L 375.551 63.721 L 374.828 74.905 L 374.562 74.981 L 374.562 74.981 Q 371.747 70.758 364.976 69.503 L 364.976 69.503 L 364.976 69.503 Q 362.846 69.085 360.887 69.085 L 360.887 69.085 L 360.887 69.085 Q 358.928 69.085 357.54 69.427 L 357.54 69.427 L 357.54 69.427 Q 356.151 69.769 355.162 70.416 L 355.162 70.416 L 355.162 70.416 Q 353.07 71.785 353.07 73.992 L 353.07 73.992 L 353.07 73.992 Q 353.07 76.883 354.896 78.328 L 354.896 78.328 L 354.896 78.328 Q 357.178 80.078 362.466 80.782 L 362.466 80.782 L 362.466 80.782 Q 367.753 81.485 370.948 82.702 L 370.948 82.702 L 370.948 82.702 Q 374.144 83.92 376.198 85.784 L 376.198 85.784 L 376.198 85.784 Q 380.078 89.283 380.078 95.674 L 380.078 95.674 L 380.078 95.674 Q 380.078 104.042 373.763 108.569 L 373.763 108.569 L 373.763 108.569 Q 368.362 112.449 360.145 112.449 L 360.145 112.449 L 360.145 112.449 Q 353.527 112.449 347.06 109.938 L 347.06 109.938 L 347.06 109.938 Q 344.93 109.101 343.332 107.998 L 343.332 107.998 L 343.751 95.293 L 343.903 95.179 L 343.903 95.179 Q 348.62 103.319 359.385 103.319 L 359.385 103.319 L 359.385 103.319 Q 367.03 103.319 369.503 99.63 L 369.503 99.63 L 369.503 99.63 Q 370.34 98.374 370.34 96.834 L 370.34 96.834 L 370.34 96.834 Q 370.34 95.293 369.845 94.285 L 369.845 94.285 L 369.845 94.285 Q 369.351 93.277 368.21 92.554 L 368.21 92.554 L 368.21 92.554 Q 366.003 91.109 360.792 90.614 L 360.792 90.614 L 360.792 90.614 Q 355.581 90.12 352.272 88.751 L 352.272 88.751 L 352.272 88.751 Q 348.962 87.381 346.984 85.365 L 346.984 85.365 L 346.984 85.365 Q 343.409 81.713 343.409 75.171 L 343.409 75.171 L 343.409 75.171 Q 343.409 68.4 348.163 64.216 L 348.163 64.216 L 348.163 64.216 Q 352.994 59.955 361.192 59.955 L 361.192 59.955 L 361.192 59.955 Q 369.389 59.955 375.551 63.721 Z  M 399.325 110.699 L 399.325 110.699 L 399.325 121.882 L 399.325 121.882 Q 399.325 125.153 399.477 126.142 L 399.477 126.142 L 390.006 126.142 L 390.006 71.747 L 399.325 71.747 L 399.325 74.22 L 399.325 74.22 Q 403.928 70.987 408.15 70.987 L 408.15 70.987 L 408.15 70.987 Q 412.372 70.987 415.644 72.166 L 415.644 72.166 L 415.644 72.166 Q 418.915 73.345 421.387 75.817 L 421.387 75.817 L 421.387 75.817 Q 426.827 81.181 426.827 91.109 L 426.827 91.109 L 426.827 91.109 Q 426.827 97.69 423.746 102.863 L 423.746 102.863 L 423.746 102.863 Q 421.121 107.237 416.48 109.862 L 416.48 109.862 L 416.48 109.862 Q 412.372 112.182 407.579 112.182 L 407.579 112.182 L 407.579 112.182 Q 402.787 112.182 399.325 110.699 Z  M 399.325 82.779 L 399.325 101.113 L 399.325 101.113 Q 402.216 103.548 406.819 103.548 L 406.819 103.548 L 406.819 103.548 Q 414.35 103.548 416.557 96.282 L 416.557 96.282 L 416.557 96.282 Q 417.317 93.81 417.317 90.976 L 417.317 90.976 L 417.317 90.976 Q 417.317 88.142 416.785 86.449 L 416.785 86.449 L 416.785 86.449 Q 416.252 84.757 415.396 83.52 L 415.396 83.52 L 415.396 83.52 Q 414.54 82.284 413.475 81.466 L 413.475 81.466 L 413.475 81.466 Q 412.41 80.648 411.307 80.154 L 411.307 80.154 L 411.307 80.154 Q 409.367 79.279 407.313 79.279 L 407.313 79.279 L 407.313 79.279 Q 405.259 79.279 403.053 80.23 L 403.053 80.23 L 403.053 80.23 Q 400.847 81.181 399.325 82.779 L 399.325 82.779 Z  M 461.062 109.139 L 461.062 109.139 L 461.062 109.139 Q 455.66 112.068 451.286 112.068 L 451.286 112.068 L 451.286 112.068 Q 446.911 112.068 443.792 111.25 L 443.792 111.25 L 443.792 111.25 Q 440.673 110.432 438.505 108.835 L 438.505 108.835 L 438.505 108.835 Q 434.092 105.602 434.092 99.477 L 434.092 99.477 L 434.092 99.477 Q 434.092 94 439.494 90.348 L 439.494 90.348 L 439.494 90.348 Q 445.352 86.392 455.394 86.392 L 455.394 86.392 L 456.915 86.43 L 456.915 86.43 Q 457.372 86.468 457.942 86.487 L 457.942 86.487 L 457.942 86.487 Q 458.513 86.506 458.969 86.582 L 458.969 86.582 L 458.969 86.582 Q 458.665 80.496 453.72 79.469 L 453.72 79.469 L 453.72 79.469 Q 452.084 79.127 450.24 79.127 L 450.24 79.127 L 450.24 79.127 Q 448.395 79.127 446.626 79.45 L 446.626 79.45 L 446.626 79.45 Q 444.857 79.773 443.183 80.306 L 443.183 80.306 L 443.183 80.306 Q 439.494 81.485 437.896 83.007 L 437.896 83.007 L 437.782 82.931 L 436.641 74.524 L 436.641 74.524 Q 443.374 70.987 451.362 70.987 L 451.362 70.987 L 451.362 70.987 Q 463.762 70.987 467.224 79.926 L 467.224 79.926 L 467.224 79.926 Q 468.327 82.779 468.327 86.354 L 468.327 86.354 L 468.327 100.124 L 468.327 100.124 Q 468.327 104.537 471.446 106.134 L 471.446 106.134 L 464.561 112.449 L 464.561 112.449 Q 462.393 111.307 461.062 109.139 Z  M 459.007 101.379 L 459.007 93.429 L 459.007 93.429 Q 457.98 93.239 456.877 93.239 L 456.877 93.239 L 455.356 93.239 L 455.356 93.239 Q 446.949 93.239 444.667 96.967 L 444.667 96.967 L 444.667 96.967 Q 443.982 98.07 443.982 99.287 L 443.982 99.287 L 443.982 99.287 Q 443.982 100.504 444.42 101.436 L 444.42 101.436 L 444.42 101.436 Q 444.857 102.368 445.884 102.977 L 445.884 102.977 L 445.884 102.977 Q 447.862 104.118 451.761 104.118 L 451.761 104.118 L 451.761 104.118 Q 455.66 104.118 459.045 102.254 L 459.045 102.254 L 459.045 102.254 Q 459.007 101.836 459.007 101.379 L 459.007 101.379 Z  M 510.397 98.526 L 511.272 107.808 L 511.272 107.808 Q 507.012 112.068 497.921 112.068 L 497.921 112.068 L 497.921 112.068 Q 489.096 112.068 483.504 106.705 L 483.504 106.705 L 483.504 106.705 Q 477.836 101.265 477.836 92.25 L 477.836 92.25 L 477.836 92.25 Q 477.836 83.083 483.428 77.187 L 483.428 77.187 L 483.428 77.187 Q 489.362 70.987 499.29 70.987 L 499.29 70.987 L 499.29 70.987 Q 506.327 70.987 511.082 74.068 L 511.082 74.068 L 509.561 83.806 L 509.294 83.768 L 509.294 83.768 Q 507.468 81.561 505.452 80.877 L 505.452 80.877 L 505.452 80.877 Q 502.181 79.735 498.91 79.735 L 498.91 79.735 L 498.91 79.735 Q 495.638 79.735 493.775 80.572 L 493.775 80.572 L 493.775 80.572 Q 491.911 81.409 490.579 82.893 L 490.579 82.893 L 490.579 82.893 Q 487.917 85.936 487.917 90.957 L 487.917 90.957 L 487.917 90.957 Q 487.917 99.858 494.079 102.597 L 494.079 102.597 L 494.079 102.597 Q 496.209 103.509 498.586 103.509 L 498.586 103.509 L 498.586 103.509 Q 500.964 103.509 502.733 103.091 L 502.733 103.091 L 502.733 103.091 Q 504.501 102.673 505.947 101.95 L 505.947 101.95 L 505.947 101.95 Q 509.028 100.428 510.131 98.412 L 510.131 98.412 L 510.397 98.526 Z  M 517.32 91.946 L 517.32 91.946 L 517.32 91.946 Q 517.32 87.495 518.842 83.691 L 518.842 83.691 L 518.842 83.691 Q 520.363 79.888 523.14 77.035 L 523.14 77.035 L 523.14 77.035 Q 529.074 70.987 538.66 70.987 L 538.66 70.987 L 538.66 70.987 Q 546.762 70.987 551.669 76.35 L 551.669 76.35 L 551.669 76.35 Q 556.5 81.523 556.5 89.359 L 556.5 89.359 L 556.5 89.359 Q 556.5 92.364 556.044 93.467 L 556.044 93.467 L 556.044 93.467 Q 552.24 94.532 540.562 94.532 L 540.562 94.532 L 527.172 94.532 L 527.172 94.532 Q 528.161 98.603 531.775 100.866 L 531.775 100.866 L 531.775 100.866 Q 535.389 103.129 541.171 103.129 L 541.171 103.129 L 541.171 103.129 Q 547.219 103.129 551.555 100.961 L 551.555 100.961 L 551.555 100.961 Q 552.696 100.39 553.267 99.896 L 553.267 99.896 L 553.267 99.896 Q 553.191 101.493 553.077 103.167 L 553.077 103.167 L 552.658 109.101 L 552.658 109.101 Q 549.767 111.079 543.301 111.84 L 543.301 111.84 L 543.301 111.84 Q 541.399 112.068 539.649 112.068 L 539.649 112.068 L 539.649 112.068 Q 529.987 112.068 523.673 106.438 L 523.673 106.438 L 523.673 106.438 Q 517.32 100.771 517.32 91.946 Z  M 546.382 87.153 L 546.382 87.153 L 546.382 87.153 Q 544.822 78.975 537.481 78.975 L 537.481 78.975 L 537.481 78.975 Q 531.699 78.975 528.694 83.958 L 528.694 83.958 L 528.694 83.958 Q 527.781 85.479 527.286 87.305 L 527.286 87.305 L 527.286 87.305 Q 528.199 87.343 529.531 87.381 L 529.531 87.381 L 532.346 87.381 L 532.346 87.381 Q 533.753 87.419 535.046 87.419 L 535.046 87.419 L 537.215 87.419 L 537.215 87.419 Q 539.154 87.419 541.018 87.381 L 541.018 87.381 L 544.138 87.267 L 544.138 87.267 Q 545.393 87.229 546.382 87.153 Z " fill="rgb(255,255,255)"/></g></svg>